<?xml version="1.0" encoding="UTF-8"?>
<svg id="Layer_2" data-name="Layer 2" xmlns="http://www.w3.org/2000/svg" viewBox="0 0 67.7 9.93">
  <defs>
    <style>
      .cls-1 {
        fill: #231f20;
      }

      .cls-2 {
        fill: #3bba93;
      }
    </style>
  </defs>
  <g id="Layer_1-2" data-name="Layer 1">
    <g>
      <path class="cls-1" d="M22.34,9.76c-.09-.29-.19-.59-.3-.89-.11-.3-.21-.61-.32-.91h-3.25c-.1.3-.21.61-.32.91s-.2.6-.29.89h-1.94c.31-.9.61-1.72.89-2.48.28-.76.56-1.48.82-2.15.27-.67.53-1.31.79-1.91.26-.6.53-1.19.81-1.77h1.77c.27.58.54,1.17.81,1.77.27.6.53,1.24.8,1.91.27.67.54,1.39.83,2.15.28.76.58,1.59.89,2.48h-2ZM20.09,3.33c-.04.12-.1.29-.18.49-.08.21-.17.45-.27.72-.1.27-.22.57-.34.9-.13.33-.26.67-.39,1.03h2.38c-.13-.36-.25-.71-.37-1.03-.12-.33-.23-.63-.34-.9s-.2-.51-.28-.72c-.08-.21-.15-.37-.2-.49Z"/>
      <path class="cls-1" d="M26.84,5.71c.18-.19.36-.39.55-.6s.37-.41.55-.61.34-.4.5-.58c.16-.18.29-.34.4-.48h2.13c-.42.49-.84.95-1.24,1.4-.4.44-.85.9-1.33,1.37.24.22.49.47.74.78s.5.61.74.93c.24.32.46.64.66.96.2.32.37.61.5.88h-2.06c-.13-.21-.27-.44-.44-.69-.16-.25-.34-.5-.52-.76-.18-.25-.38-.5-.58-.73s-.41-.43-.6-.59v2.77h-1.79V.74l1.79-.29v5.27Z"/>
      <path class="cls-1" d="M33.57,8.48c.33,0,.56-.03.7-.1.14-.06.2-.19.2-.37,0-.14-.09-.27-.26-.38-.18-.11-.44-.23-.8-.37-.28-.1-.53-.21-.76-.32-.23-.11-.42-.25-.58-.4-.16-.16-.28-.34-.37-.56-.09-.22-.13-.48-.13-.78,0-.59.22-1.06.66-1.4.44-.34,1.04-.52,1.81-.52.38,0,.75.03,1.1.1.35.07.63.14.84.22l-.31,1.39c-.21-.07-.43-.14-.68-.19-.24-.06-.52-.08-.82-.08-.56,0-.84.16-.84.47,0,.07.01.14.04.19.02.06.07.11.14.16s.17.11.29.17.28.13.47.2c.39.15.72.29.97.43.26.14.46.29.61.46.15.16.25.35.31.54s.09.43.09.69c0,.62-.23,1.09-.7,1.41-.47.32-1.13.48-1.99.48-.56,0-1.03-.05-1.4-.14-.37-.1-.63-.18-.77-.24l.3-1.45c.3.12.62.21.94.28s.64.1.95.1Z"/>
      <path class="cls-1" d="M37.04,6.65c0-.56.09-1.05.26-1.47s.4-.77.68-1.05.6-.49.97-.64.74-.22,1.12-.22c.9,0,1.6.27,2.12.82.52.55.78,1.35.78,2.42,0,.1,0,.22-.01.34s-.02.23-.03.33h-4.06c.04.37.21.66.52.88.3.22.71.32,1.22.32.33,0,.65-.03.97-.09.32-.06.57-.13.77-.22l.24,1.45c-.1.05-.22.1-.38.14s-.34.09-.53.13c-.2.04-.41.07-.63.09-.22.02-.45.04-.67.04-.57,0-1.06-.08-1.48-.25s-.77-.4-1.04-.69c-.28-.29-.48-.64-.61-1.04-.13-.4-.2-.83-.2-1.3ZM41.24,5.97c0-.15-.03-.3-.08-.44-.04-.14-.11-.27-.2-.38-.09-.11-.21-.2-.35-.28-.14-.07-.31-.11-.52-.11s-.37.03-.52.1c-.14.07-.26.16-.36.27-.1.11-.17.24-.22.39-.05.15-.09.3-.11.45h2.36Z"/>
      <path class="cls-1" d="M46.63,9.88c-.52,0-.94-.06-1.27-.17s-.58-.25-.77-.44-.32-.42-.38-.68c-.07-.27-.1-.57-.1-.91V.74l1.79-.29v6.88c0,.16.01.3.04.43s.07.24.14.32c.07.09.17.16.29.22.13.06.3.09.52.11l-.25,1.48Z"/>
      <path class="cls-1" d="M50.18,9.88c-.52,0-.94-.06-1.27-.17s-.58-.25-.77-.44-.32-.42-.38-.68c-.07-.27-.1-.57-.1-.91V.74l1.79-.29v6.88c0,.16.01.3.04.43s.07.24.14.32c.07.09.17.16.29.22.13.06.3.09.52.11l-.25,1.48Z"/>
      <path class="cls-1" d="M50.91,6.65c0-.56.09-1.05.26-1.47s.4-.77.68-1.05c.28-.28.6-.49.97-.64.36-.14.74-.22,1.12-.22.9,0,1.6.27,2.12.82.52.55.78,1.35.78,2.42,0,.1,0,.22-.01.34s-.02.23-.02.33h-4.06c.04.37.21.66.52.88.3.22.71.32,1.22.32.33,0,.65-.03.97-.09.32-.06.57-.13.77-.22l.24,1.45c-.1.05-.22.1-.38.14s-.34.09-.53.13-.41.07-.63.09c-.22.02-.45.04-.67.04-.57,0-1.06-.08-1.48-.25-.42-.17-.77-.4-1.04-.69-.28-.29-.48-.64-.61-1.04-.13-.4-.2-.83-.2-1.3ZM55.11,5.97c0-.15-.03-.3-.08-.44-.04-.14-.11-.27-.2-.38-.09-.11-.21-.2-.35-.28-.14-.07-.31-.11-.52-.11s-.37.03-.52.1c-.14.07-.26.16-.36.27s-.17.24-.22.39c-.05.15-.09.3-.11.45h2.36Z"/>
      <path class="cls-1" d="M61.79,5.03c-.16-.04-.35-.08-.56-.13s-.45-.07-.7-.07c-.11,0-.25.01-.4.03-.16.02-.27.04-.35.07v4.82h-1.79V3.78c.32-.11.7-.22,1.13-.32.44-.1.92-.15,1.46-.15.1,0,.21,0,.35.02.14.01.27.03.41.05.14.02.27.04.41.07.14.03.25.06.35.1l-.3,1.48Z"/>
      <path class="cls-1" d="M64.95,3.28c.53,0,.97.06,1.32.18.35.12.63.29.85.52.21.22.36.5.45.82s.13.68.13,1.07v3.72c-.26.06-.61.12-1.07.2-.46.08-1.01.11-1.66.11-.41,0-.78-.04-1.11-.11-.33-.07-.62-.19-.86-.35-.24-.16-.42-.38-.55-.64s-.19-.59-.19-.97.07-.68.22-.94c.15-.26.35-.46.59-.61.25-.15.53-.26.85-.33.32-.07.65-.1,1-.1.23,0,.44,0,.62.03.18.02.33.05.44.08v-.17c0-.3-.09-.55-.28-.73-.18-.18-.5-.28-.96-.28-.3,0-.6.02-.9.07s-.55.11-.77.19l-.23-1.44c.1-.03.23-.07.39-.1.16-.04.33-.07.51-.1.18-.03.38-.05.58-.07.2-.02.41-.03.62-.03ZM65.1,8.51c.18,0,.34,0,.5-.01s.29-.02.38-.04v-1.36c-.07-.02-.18-.03-.32-.05-.14-.02-.28-.02-.4-.02-.17,0-.33,0-.47.03-.15.02-.28.06-.39.11-.11.06-.2.13-.26.23-.06.1-.1.22-.1.36,0,.28.09.47.28.58.19.11.45.16.77.16Z"/>
    </g>
    <g>
      <path class="cls-2" d="M2.26,5.4l1.38.78c.22.13.48.19.73.19h5.94c.46,0,.75-.5.52-.9l-1.04-1.8c-.11-.19-.31-.3-.52-.3h-5.13c-.1,0-.21.03-.3.08l-1.58.9c-.41.23-.41.82,0,1.05Z"/>
      <path class="cls-2" d="M4.22,2.02l1.38.78c.22.13.48.19.73.19h2.03c.46,0,.75-.5.52-.9l-1.04-1.8c-.11-.19-.31-.3-.52-.3h-1.22c-.1,0-.21.03-.3.08l-1.58.9c-.41.23-.41.82,0,1.05Z"/>
      <path class="cls-2" d="M12.79,8.86l-1.04-1.8c-.11-.19-.31-.3-.52-.3H2.18l-.3.08-1.58.9c-.41.23-.41.81,0,1.04l1.38.78c.22.13.48.19.73.19h1.91c.45,0,.88-.24,1.1-.64l.62-1.07c.44-.76,1.53-.76,1.97,0l.62,1.07c.23.39.65.64,1.1.64h2.53c.46,0,.75-.5.52-.9Z"/>
    </g>
  </g>
</svg>